<svg width="17" height="17" viewBox="0 0 17 17" fill="none" xmlns="http://www.w3.org/2000/svg">
<path d="M14.5207 1.77081H2.479L3.5415 13.8125L8.49984 15.2291L13.4582 13.8125L14.5207 1.77081Z" fill="#0277BD"/>
<path d="M8.5 2.83331V14.1312L12.4667 12.9979L13.3521 2.83331H8.5Z" fill="#039BE5"/>
<path d="M11.7229 4.60419H8.5V6.02085H10.2354L10.1292 7.43752H8.5V8.85419H10.0583L9.95208 10.4479L8.5 10.9438V12.4313L11.2979 11.5104L11.5458 7.43752L11.7229 4.60419Z" fill="#E7F0EC"/>
<path d="M8.50003 4.60419V6.02085H5.34795L5.2417 4.60419H8.50003ZM6.87087 7.43752L6.9417 8.85419H8.50003V7.43752H6.87087ZM7.01253 9.56252H5.59587L5.70212 11.5104L8.50003 12.4313V10.9438L7.04795 10.4479L7.01253 9.56252Z" fill="#EEEEEE"/>
</svg>
