<svg width="17" height="17" viewBox="0 0 17 17" fill="none" xmlns="http://www.w3.org/2000/svg">
<path d="M14.5207 1.77081H2.479L3.5415 13.8125L8.49984 15.2291L13.4582 13.8125L14.5207 1.77081Z" fill="#E65100"/>
<path d="M8.5 2.83331V14.1312L12.4667 12.9979L13.3521 2.83331H8.5Z" fill="#FF6D00"/>
<path d="M8.5 8.85419V7.43752H11.5458L11.2979 11.5104L8.5 12.4313V10.9438L9.95208 10.4479L10.0583 8.85419H8.5ZM11.6521 6.02085L11.7583 4.60419H8.5V6.02085H11.6521Z" fill="#E7F0EC"/>
<path d="M8.49977 10.9438V12.4313L5.70186 11.5104L5.56019 9.56252H6.97686L7.04769 10.4479L8.49977 10.9438ZM6.76436 6.02085H8.49977V4.60419H5.27686L5.52477 8.85419H8.49977V7.43752H6.87061L6.76436 6.02085Z" fill="#EEEEEE"/>
</svg>
