<svg width="17" height="17" viewBox="0 0 17 17" fill="none" xmlns="http://www.w3.org/2000/svg">
<path d="M2.125 14.875V2.125H14.875V14.875H2.125Z" fill="#F7DF1E"/>
<path d="M10.4616 11.6687C10.7067 12.0668 10.973 12.4483 11.5372 12.4483C12.0111 12.4483 12.2597 12.2127 12.2597 11.8869C12.2597 11.497 12.0026 11.3585 11.4812 11.1315L11.1954 11.0096C10.3706 10.6597 9.82198 10.2213 9.82198 9.29512C9.82198 8.44158 10.4754 7.79204 11.4965 7.79204C12.2236 7.79204 12.746 8.04385 13.1228 8.70331L12.2324 9.27246C12.0366 8.92254 11.8248 8.78477 11.4965 8.78477C11.1614 8.78477 10.9493 8.99621 10.9493 9.27246C10.9493 9.61387 11.1618 9.752 11.6523 9.96344L11.9381 10.0853C12.9103 10.4993 13.4586 10.9222 13.4586 11.8727C13.4586 12.897 12.6496 13.4584 11.5638 13.4584C10.5016 13.4584 9.89848 12.9253 9.56273 12.2655L10.4616 11.6687ZM6.35823 11.6978C6.53743 12.0187 6.80979 12.2655 7.2015 12.2655C7.57621 12.2655 7.79189 12.1175 7.79189 11.542V7.79169H8.97233V11.7233C8.97233 12.9158 8.28064 13.4584 7.27056 13.4584C6.35787 13.4584 5.69912 12.84 5.43066 12.2655L6.35823 11.6978Z" fill="#000001"/>
</svg>
