<svg width="15" height="15" viewBox="0 0 15 15" fill="none" xmlns="http://www.w3.org/2000/svg">
<path d="M14.0289 5.69606H13.4583V5.66667H7.08333V8.5H11.0865C10.5025 10.1494 8.93315 11.3333 7.08333 11.3333C4.73627 11.3333 2.83333 9.4304 2.83333 7.08333C2.83333 4.73627 4.73627 2.83333 7.08333 2.83333C8.16673 2.83333 9.15238 3.24204 9.90285 3.90965L11.9064 1.90613C10.6413 0.727104 8.94908 0 7.08333 0C3.17156 0 0 3.17156 0 7.08333C0 10.9951 3.17156 14.1667 7.08333 14.1667C10.9951 14.1667 14.1667 10.9951 14.1667 7.08333C14.1667 6.6084 14.1178 6.14479 14.0289 5.69606Z" fill="#FFC107"/>
<path d="M0.816708 3.7864L3.14394 5.49312C3.77365 3.93408 5.29869 2.83333 7.08333 2.83333C8.16673 2.83333 9.15238 3.24204 9.90285 3.90965L11.9064 1.90613C10.6413 0.727104 8.94908 0 7.08333 0C4.36263 0 2.00317 1.53602 0.816708 3.7864Z" fill="#FF3D00"/>
<path d="M7.08333 14.1667C8.91296 14.1667 10.5754 13.4665 11.8324 12.3278L9.64006 10.4727C8.9289 11.0114 8.0449 11.3333 7.08333 11.3333C5.24096 11.3333 3.6766 10.1586 3.08727 8.51912L0.777396 10.2988C1.94969 12.5927 4.3304 14.1667 7.08333 14.1667Z" fill="#4CAF50"/>
<path d="M14.0289 5.69606H13.4583V5.66667H7.08333V8.5H11.0865C10.806 9.29227 10.2963 9.97546 9.639 10.4731L9.64006 10.4727L11.8324 12.3278C11.6772 12.4688 14.1667 10.625 14.1667 7.08333C14.1667 6.6084 14.1178 6.14479 14.0289 5.69606Z" fill="#1976D2"/>
</svg>
