<svg width="17" height="17" viewBox="0 0 17 17" fill="none" xmlns="http://www.w3.org/2000/svg">
<path d="M0 6.15238C0 3.99885 0 2.92208 0.419106 2.09954C0.787762 1.37601 1.37601 0.787762 2.09954 0.419106C2.92208 0 3.99885 0 6.15238 0L10.8476 0C13.0012 0 14.0779 0 14.9005 0.419106C15.624 0.787762 16.2122 1.37601 16.5809 2.09954C17 2.92208 17 3.99885 17 6.15238V10.8476C17 13.0012 17 14.0779 16.5809 14.9005C16.2122 15.624 15.624 16.2122 14.9005 16.5809C14.0779 17 13.0012 17 10.8476 17H6.15238C3.99885 17 2.92208 17 2.09954 16.5809C1.37601 16.2122 0.787762 15.624 0.419106 14.9005C0 14.0779 0 13.0012 0 10.8476L0 6.15238Z" fill="#E7F0EC"/>
<path d="M0 6.15238C0 3.99885 0 2.92208 0.419106 2.09954C0.787762 1.37601 1.37601 0.787762 2.09954 0.419106C2.92208 0 3.99885 0 6.15238 0L10.8476 0C13.0012 0 14.0779 0 14.9005 0.419106C15.624 0.787762 16.2122 1.37601 16.5809 2.09954C17 2.92208 17 3.99885 17 6.15238V10.8476C17 13.0012 17 14.0779 16.5809 14.9005C16.2122 15.624 15.624 16.2122 14.9005 16.5809C14.0779 17 13.0012 17 10.8476 17H6.15238C3.99885 17 2.92208 17 2.09954 16.5809C1.37601 16.2122 0.787762 15.624 0.419106 14.9005C0 14.0779 0 13.0012 0 10.8476L0 6.15238Z" fill="url(#paint0_radial_459_142)"/>
<path d="M0 6.15238C0 3.99885 0 2.92208 0.419106 2.09954C0.787762 1.37601 1.37601 0.787762 2.09954 0.419106C2.92208 0 3.99885 0 6.15238 0L10.8476 0C13.0012 0 14.0779 0 14.9005 0.419106C15.624 0.787762 16.2122 1.37601 16.5809 2.09954C17 2.92208 17 3.99885 17 6.15238V10.8476C17 13.0012 17 14.0779 16.5809 14.9005C16.2122 15.624 15.624 16.2122 14.9005 16.5809C14.0779 17 13.0012 17 10.8476 17H6.15238C3.99885 17 2.92208 17 2.09954 16.5809C1.37601 16.2122 0.787762 15.624 0.419106 14.9005C0 14.0779 0 13.0012 0 10.8476L0 6.15238Z" fill="url(#paint1_radial_459_142)"/>
<path d="M0 6.15238C0 3.99885 0 2.92208 0.419106 2.09954C0.787762 1.37601 1.37601 0.787762 2.09954 0.419106C2.92208 0 3.99885 0 6.15238 0L10.8476 0C13.0012 0 14.0779 0 14.9005 0.419106C15.624 0.787762 16.2122 1.37601 16.5809 2.09954C17 2.92208 17 3.99885 17 6.15238V10.8476C17 13.0012 17 14.0779 16.5809 14.9005C16.2122 15.624 15.624 16.2122 14.9005 16.5809C14.0779 17 13.0012 17 10.8476 17H6.15238C3.99885 17 2.92208 17 2.09954 16.5809C1.37601 16.2122 0.787762 15.624 0.419106 14.9005C0 14.0779 0 13.0012 0 10.8476L0 6.15238Z" fill="url(#paint2_radial_459_142)"/>
<path d="M0 6.15238C0 3.99885 0 2.92208 0.419106 2.09954C0.787762 1.37601 1.37601 0.787762 2.09954 0.419106C2.92208 0 3.99885 0 6.15238 0L10.8476 0C13.0012 0 14.0779 0 14.9005 0.419106C15.624 0.787762 16.2122 1.37601 16.5809 2.09954C17 2.92208 17 3.99885 17 6.15238V10.8476C17 13.0012 17 14.0779 16.5809 14.9005C16.2122 15.624 15.624 16.2122 14.9005 16.5809C14.0779 17 13.0012 17 10.8476 17H6.15238C3.99885 17 2.92208 17 2.09954 16.5809C1.37601 16.2122 0.787762 15.624 0.419106 14.9005C0 14.0779 0 13.0012 0 10.8476L0 6.15238Z" fill="url(#paint3_radial_459_142)"/>
<path d="M0 6.15238C0 3.99885 0 2.92208 0.419106 2.09954C0.787762 1.37601 1.37601 0.787762 2.09954 0.419106C2.92208 0 3.99885 0 6.15238 0L10.8476 0C13.0012 0 14.0779 0 14.9005 0.419106C15.624 0.787762 16.2122 1.37601 16.5809 2.09954C17 2.92208 17 3.99885 17 6.15238V10.8476C17 13.0012 17 14.0779 16.5809 14.9005C16.2122 15.624 15.624 16.2122 14.9005 16.5809C14.0779 17 13.0012 17 10.8476 17H6.15238C3.99885 17 2.92208 17 2.09954 16.5809C1.37601 16.2122 0.787762 15.624 0.419106 14.9005C0 14.0779 0 13.0012 0 10.8476L0 6.15238Z" fill="url(#paint4_radial_459_142)"/>
<path d="M0 6.15238C0 3.99885 0 2.92208 0.419106 2.09954C0.787762 1.37601 1.37601 0.787762 2.09954 0.419106C2.92208 0 3.99885 0 6.15238 0L10.8476 0C13.0012 0 14.0779 0 14.9005 0.419106C15.624 0.787762 16.2122 1.37601 16.5809 2.09954C17 2.92208 17 3.99885 17 6.15238V10.8476C17 13.0012 17 14.0779 16.5809 14.9005C16.2122 15.624 15.624 16.2122 14.9005 16.5809C14.0779 17 13.0012 17 10.8476 17H6.15238C3.99885 17 2.92208 17 2.09954 16.5809C1.37601 16.2122 0.787762 15.624 0.419106 14.9005C0 14.0779 0 13.0012 0 10.8476L0 6.15238Z" fill="url(#paint5_radial_459_142)"/>
<path d="M0 6.15238C0 3.99885 0 2.92208 0.419106 2.09954C0.787762 1.37601 1.37601 0.787762 2.09954 0.419106C2.92208 0 3.99885 0 6.15238 0L10.8476 0C13.0012 0 14.0779 0 14.9005 0.419106C15.624 0.787762 16.2122 1.37601 16.5809 2.09954C17 2.92208 17 3.99885 17 6.15238V10.8476C17 13.0012 17 14.0779 16.5809 14.9005C16.2122 15.624 15.624 16.2122 14.9005 16.5809C14.0779 17 13.0012 17 10.8476 17H6.15238C3.99885 17 2.92208 17 2.09954 16.5809C1.37601 16.2122 0.787762 15.624 0.419106 14.9005C0 14.0779 0 13.0012 0 10.8476L0 6.15238Z" fill="url(#paint6_radial_459_142)"/>
<path d="M13.6425 5.12181C12.7429 4.12651 11.475 3.56711 10.1575 3.57437C8.86834 3.57437 7.55793 4.14104 6.71501 5.05642C6.55918 5.04189 6.40334 5.02736 6.25459 5.02736C3.72584 5.02736 2.16043 7.20685 2.16043 9.22651C2.16751 10.3163 2.57834 11.3624 3.30793 12.1615C4.07293 12.997 5.13543 13.4692 6.25459 13.4692H10.1575C12.8067 13.4692 14.96 11.2389 14.96 8.50728C14.9458 7.25044 14.4783 6.04446 13.6425 5.12181ZM6.17667 12.7573C4.29959 12.7573 2.78376 11.1953 2.78376 9.2701C2.78376 7.35942 4.29251 5.80471 6.16251 5.79018C6.99126 5.79018 7.86251 6.06626 8.41501 6.66924L9.83876 8.16582C10.0725 8.41283 10.0654 8.80514 9.82459 9.04488C9.58376 9.28463 9.20126 9.27736 8.96751 9.03035L7.57917 7.56283C6.67251 6.76369 5.30542 6.8654 4.52626 7.79531C4.18626 8.19488 4.00209 8.7107 4.00209 9.24104C4.00209 10.4615 5.01501 11.4932 6.21209 11.4932H6.48834C6.88501 12.0598 7.99709 12.7573 7.99709 12.7573H6.17667ZM13.1325 11.5077C12.3746 12.3214 11.3263 12.7791 10.2283 12.7863C9.18709 12.7863 8.12459 12.3068 7.31001 11.4786L5.45417 9.5607C5.22043 9.31369 5.22751 8.92138 5.46126 8.68164C5.57459 8.5654 5.72334 8.50728 5.88626 8.50728C6.04918 8.50728 6.20501 8.57266 6.31834 8.69617L8.16709 10.5923C8.75501 11.1953 9.50584 11.5368 10.2283 11.5368C11.0004 11.5368 11.7371 11.2098 12.2683 10.6286C12.8138 10.0547 13.1183 9.28463 13.1183 8.48548C13.1183 6.8436 11.815 5.51412 10.2142 5.50685C9.60501 5.50685 9.10209 5.63035 8.60626 5.98634C8.32557 5.69845 7.72084 5.41241 7.44459 5.35429C8.20959 4.62052 9.16584 4.26454 10.2142 4.26454C12.4879 4.26454 14.3225 6.15343 14.3296 8.48548C14.3296 9.61155 13.9046 10.7013 13.1325 11.5077Z" fill="#E7F0EC"/>
<defs>
<radialGradient id="paint0_radial_459_142" cx="0" cy="0" r="1" gradientTransform="matrix(6.94167 7.41026 -7.41026 7.30222 14.1312 14.5299)" gradientUnits="userSpaceOnUse">
<stop stop-color="#68E048"/>
<stop offset="1" stop-color="#5CE049" stop-opacity="0"/>
</radialGradient>
<radialGradient id="paint1_radial_459_142" cx="0" cy="0" r="1" gradientTransform="matrix(-7.61458 7.01068 -7.01068 -8.01008 2.69167 14.4573)" gradientUnits="userSpaceOnUse">
<stop stop-color="#308CFE"/>
<stop offset="1" stop-color="#2F8BFF" stop-opacity="0"/>
</radialGradient>
<radialGradient id="paint2_radial_459_142" cx="0" cy="0" r="1" gradientTransform="matrix(6.02083 0.83547 -0.83547 6.33355 13.8125 9.51709)" gradientUnits="userSpaceOnUse">
<stop stop-color="#FDD511"/>
<stop offset="1" stop-color="#FDD20D" stop-opacity="0"/>
</radialGradient>
<radialGradient id="paint3_radial_459_142" cx="0" cy="0" r="1" gradientTransform="matrix(-5.41875 -7.15598 7.15598 -5.7002 2.90417 6.13889)" gradientUnits="userSpaceOnUse">
<stop stop-color="#F928C2"/>
<stop offset="1" stop-color="#F922BC" stop-opacity="0"/>
</radialGradient>
<radialGradient id="paint4_radial_459_142" cx="0" cy="0" r="1" gradientTransform="matrix(4.0375 -8.0641 8.0641 4.24721 9.63333 2.83333)" gradientUnits="userSpaceOnUse">
<stop stop-color="#F90700"/>
<stop offset="1" stop-color="#F90700" stop-opacity="0"/>
</radialGradient>
<radialGradient id="paint5_radial_459_142" cx="0" cy="0" r="1" gradientTransform="matrix(2.23125 -4.94017 4.94017 2.34714 16.0792 2.47009)" gradientUnits="userSpaceOnUse">
<stop stop-color="#FB4200"/>
<stop offset="1" stop-color="#FB4300" stop-opacity="0"/>
</radialGradient>
<radialGradient id="paint6_radial_459_142" cx="0" cy="0" r="1" gradientTransform="matrix(-3.32917 -3.48718 3.48718 -3.50208 1.77083 2.07051)" gradientUnits="userSpaceOnUse">
<stop stop-color="#FE0D88"/>
<stop offset="1" stop-color="#FE0D88" stop-opacity="0"/>
</radialGradient>
</defs>
</svg>
