<svg width="14" height="16" viewBox="0 0 14 16" fill="none" xmlns="http://www.w3.org/2000/svg">
<path d="M6.73165 15.172C6.52835 15.172 6.32683 15.1188 6.14869 15.0161L4.29285 13.9172C4.01554 13.762 4.15083 13.7071 4.24221 13.6756C4.61196 13.5463 4.68669 13.5169 5.08123 13.2928C5.12267 13.269 5.17685 13.2775 5.21935 13.3027L6.64523 14.1488C6.69658 14.1768 6.7699 14.1768 6.81735 14.1488L12.3767 10.9397C12.4281 10.9103 12.4617 10.8508 12.4617 10.7895V4.37449C12.4617 4.31039 12.4284 4.25336 12.3756 4.22149L6.81877 1.01486C6.76742 0.984406 6.69906 0.984406 6.64771 1.01486L1.09154 4.22114C1.03771 4.25159 1.00335 4.31145 1.00335 4.37272V10.7881C1.00335 10.8494 1.03665 10.9078 1.08977 10.9368L2.61233 11.8162C3.43896 12.2296 3.944 11.7426 3.944 11.2528V4.92132C3.944 4.83101 4.01483 4.76124 4.1055 4.76124H4.80958C4.89742 4.76124 4.96967 4.83066 4.96967 4.92132V11.2559C4.96967 12.3581 4.36865 12.9914 3.3235 12.9914C3.00192 12.9914 2.74869 12.9914 2.04177 12.6436L0.583312 11.8031C0.222771 11.5942 0 11.2042 0 10.7884V4.37307C0 3.95551 0.222771 3.56593 0.582958 3.3598L6.14833 0.149281C6.50038 -0.0497604 6.96787 -0.0497604 7.31744 0.149281L12.8757 3.36122C13.2341 3.56841 13.4583 3.95693 13.4583 4.37449V10.7899C13.4583 11.206 13.2341 11.5942 12.8754 11.8031L7.31708 15.0133C7.13894 15.1164 6.93706 15.1691 6.73129 15.1691" fill="#21A366"/>
<path d="M8.449 10.7513C6.01658 10.7513 5.50658 9.63457 5.50658 8.69816C5.50658 8.60926 5.57848 8.53807 5.66773 8.53807H6.38598C6.46531 8.53807 6.53225 8.5958 6.54465 8.67407C6.65302 9.40578 6.97602 9.77482 8.44687 9.77482C9.61846 9.77482 10.1168 9.51026 10.1168 8.8887C10.1168 8.53099 9.97475 8.26536 8.15469 8.08722C6.63212 7.93705 5.69146 7.60166 5.69146 6.38403C5.69146 5.26239 6.63779 4.59443 8.22269 4.59443C10.0027 4.59443 10.885 5.21245 10.9962 6.53986C11.0004 6.58591 10.9838 6.63018 10.953 6.66382C10.9225 6.6957 10.8793 6.71518 10.8347 6.71518H10.1125C10.0374 6.71518 9.97192 6.66241 9.95669 6.5898C9.78279 5.8202 9.3624 5.57405 8.21985 5.57405C6.94096 5.57405 6.79221 6.01924 6.79221 6.35322C6.79221 6.75803 6.96752 6.87632 8.69302 7.10476C10.4019 7.33143 11.2133 7.65159 11.2133 8.85257C11.2133 10.0631 10.2028 10.7576 8.44121 10.7576" fill="#21A366"/>
</svg>
