<svg width="17" height="11" viewBox="0 0 17 11" fill="none" xmlns="http://www.w3.org/2000/svg">
<path d="M8.5 0C6.23333 0 4.81667 1.13298 4.25 3.39894C5.1 2.26596 6.09167 1.84131 7.225 2.12429C7.87171 2.28579 8.33389 2.75506 8.84567 3.27427C9.67867 4.11967 10.6431 5.09858 12.75 5.09858C15.0167 5.09858 16.4333 3.9656 17 1.69929C16.15 2.83227 15.1583 3.25727 14.025 2.97429C13.3786 2.81279 12.9165 2.34352 12.4047 1.82431C11.5713 0.978562 10.6066 0 8.5 0ZM4.25 5.09858C1.98333 5.09858 0.566667 6.23156 0 8.49787C0.85 7.3649 1.84167 6.9399 2.975 7.22323C3.62135 7.38508 4.08354 7.854 4.59531 8.37285C5.42867 9.2186 6.39342 10.1975 8.5 10.1975C10.7667 10.1975 12.1833 9.06454 12.75 6.79823C11.9 7.93121 10.9083 8.35621 9.775 8.07287C9.12829 7.91137 8.6661 7.4421 8.15433 6.92325C7.32133 6.0775 6.35694 5.09858 4.25 5.09858Z" fill="#00ACC1"/>
</svg>
